{
  "accessors": [
    {
      "bufferView": 2,
      "componentType": 5126,
      "count": 56,
      "max": [
        12947.3671875,
        -426.442626953125,
        215.43138122558594
      ],
      "min": [
        12109.8046875,
        -1277.96044921875,
        -582.363525390625
      ],
      "type": "VEC3"
    },
    {
      "bufferView": 2,
      "byteOffset": 672,
      "componentType": 5126,
      "count": 56,
      "max": [
        1.0,
        1.0,
        1.0
      ],
      "min": [
        -1.0,
        -1.0,
        -1.0
      ],
      "type": "VEC3"
    },
    {
      "bufferView": 1,
      "componentType": 5126,
      "count": 56,
      "max": [
        1.0,
        1.0
      ],
      "min": [
        0.0,
        0.0
      ],
      "type": "VEC2"
    },
    {
      "bufferView": 0,
      "componentType": 5125,
      "count": 84,
      "type": "SCALAR"
    },
    {
      "bufferView": 2,
      "byteOffset": 1344,
      "componentType": 5126,
      "count": 74,
      "max": [
        44.65071487426758,
        43.97237014770508,
        7791.7109375
      ],
      "min": [
        -44.65071487426758,
        -43.972679138183594,
        0.0
      ],
      "type": "VEC3"
    },
    {
      "bufferView": 2,
      "byteOffset": 2232,
      "componentType": 5126,
      "count": 74,
      "max": [
        1.0,
        0.9848080277442932,
        1.0
      ],
      "min": [
        -1.0,
        -0.984808087348938,
        -1.0
      ],
      "type": "VEC3"
    },
    {
      "bufferView": 1,
      "byteOffset": 448,
      "componentType": 5126,
      "count": 74,
      "max": [
        1.0277777910232544,
        1.0
      ],
      "min": [
        0.007596135139465332,
        0.0
      ],
      "type": "VEC2"
    },
    {
      "bufferView": 0,
      "byteOffset": 336,
      "componentType": 5125,
      "count": 204,
      "type": "SCALAR"
    },
    {
      "bufferView": 2,
      "byteOffset": 3120,
      "componentType": 5126,
      "count": 151,
      "max": [
        193.09869384765625,
        193.0983428955078,
        8160.0517578125
      ],
      "min": [
        -193.09869384765625,
        -193.0990447998047,
        7773.8544921875
      ],
      "type": "VEC3"
    },
    {
      "bufferView": 2,
      "byteOffset": 4932,
      "componentType": 5126,
      "count": 151,
      "max": [
        1.0,
        1.0,
        1.0
      ],
      "min": [
        -1.0,
        -1.0,
        -1.0
      ],
      "type": "VEC3"
    },
    {
      "bufferView": 1,
      "byteOffset": 1040,
      "componentType": 5126,
      "count": 151,
      "max": [
        1.0000001192092896,
        1.0
      ],
      "min": [
        0.0,
        5.960464477539063e-08
      ],
      "type": "VEC2"
    },
    {
      "bufferView": 0,
      "byteOffset": 1152,
      "componentType": 5125,
      "count": 672,
      "type": "SCALAR"
    },
    {
      "bufferView": 2,
      "byteOffset": 6744,
      "componentType": 5126,
      "count": 6,
      "max": [
        13.92779541015625,
        12.106475830078125,
        7795.8857421875
      ],
      "min": [
        -1020.92724609375,
        -4.508559504756704e-05,
        6976.419921875
      ],
      "type": "VEC3"
    },
    {
      "bufferView": 2,
      "byteOffset": 6816,
      "componentType": 5126,
      "count": 6,
      "max": [
        1.739308475023904e-09,
        1.0,
        -1.6292068494294654e-07
      ],
      "min": [
        1.5107777056016635e-15,
        -1.0,
        -1.676640124514961e-07
      ],
      "type": "VEC3"
    },
    {
      "bufferView": 1,
      "byteOffset": 2248,
      "componentType": 5126,
      "count": 6,
      "max": [
        0.9826396703720093,
        1.002248764038086
      ],
      "min": [
        -0.017360299825668335,
        0.00224873423576355
      ],
      "type": "VEC2"
    },
    {
      "bufferView": 0,
      "byteOffset": 3840,
      "componentType": 5125,
      "count": 6,
      "type": "SCALAR"
    },
    {
      "bufferView": 2,
      "byteOffset": 6888,
      "componentType": 5126,
      "count": 22,
      "max": [
        13.92779541015625,
        12.106475830078125,
        7795.8857421875
      ],
      "min": [
        -1020.92724609375,
        -4.508559504756704e-05,
        6976.419921875
      ],
      "type": "VEC3"
    },
    {
      "bufferView": 2,
      "byteOffset": 7152,
      "componentType": 5126,
      "count": 22,
      "max": [
        0.9989359378814697,
        0.0,
        0.9999462962150574
      ],
      "min": [
        -0.6299599409103394,
        0.0,
        -0.776627779006958
      ],
      "type": "VEC3"
    },
    {
      "bufferView": 1,
      "byteOffset": 2296,
      "componentType": 5126,
      "count": 22,
      "max": [
        0.9826396703720093,
        1.002248764038086
      ],
      "min": [
        -0.017360299825668335,
        0.00224873423576355
      ],
      "type": "VEC2"
    },
    {
      "bufferView": 0,
      "byteOffset": 3864,
      "componentType": 5125,
      "count": 36,
      "type": "SCALAR"
    },
    {
      "bufferView": 3,
      "componentType": 5126,
      "count": 62,
      "max": [
        2.5
      ],
      "min": [
        0.0
      ],
      "type": "SCALAR"
    },
    {
      "bufferView": 4,
      "componentType": 5126,
      "count": 62,
      "max": [
        306.78125,
        -6.053213119506836,
        -3802.24609375
      ],
      "min": [
        306.78125,
        -6.053213119506836,
        -10443.40625
      ],
      "type": "VEC3"
    }
  ],
  "animations": [
    {
      "channels": [
        {
          "sampler": 0,
          "target": {
            "node": 11,
            "path": "translation"
          }
        }
      ],
      "name": "Take 001",
      "samplers": [
        {
          "input": 20,
          "interpolation": "LINEAR",
          "output": 21
        }
      ]
    }
  ],
  "asset": {
    "extras": {
      "author": "Anthony Yanez (https://sketchfab.com/paulyanez)",
      "license": "CC-BY-4.0 (http://creativecommons.org/licenses/by/4.0/)",
      "source": "https://sketchfab.com/3d-models/flagpole-super-mario-bros-3cd01b9f9ced4e509e3180378b666e22",
      "title": "Flagpole (Super Mario Bros)"
    },
    "generator": "Sketchfab-12.66.0",
    "version": "2.0"
  },
  "bufferViews": [
    {
      "buffer": 0,
      "byteLength": 4008,
      "name": "floatBufferViews",
      "target": 34963
    },
    {
      "buffer": 0,
      "byteLength": 2472,
      "byteOffset": 4008,
      "byteStride": 8,
      "name": "floatBufferViews",
      "target": 34962
    },
    {
      "buffer": 0,
      "byteLength": 7416,
      "byteOffset": 6480,
      "byteStride": 12,
      "name": "floatBufferViews",
      "target": 34962
    },
    {
      "buffer": 0,
      "byteLength": 248,
      "byteOffset": 13896,
      "name": "floatBufferViews"
    },
    {
      "buffer": 0,
      "byteLength": 744,
      "byteOffset": 14144,
      "byteStride": 12,
      "name": "floatBufferViews"
    }
  ],
  "buffers": [
    {
      "byteLength": 14888,
      "uri": "scene.bin"
    }
  ],
  "images": [
    {
      "uri": "textures/15_-_Default_baseColor.png"
    }
  ],
  "materials": [
    {
      "doubleSided": true,
      "name": "21_-_Default",
      "pbrMetallicRoughness": {
        "baseColorFactor": [
          0.454902,
          0.105882,
          0.0,
          1.0
        ],
        "metallicFactor": 0.8858612805,
        "roughnessFactor": 0.5287728658999999
      }
    },
    {
      "doubleSided": true,
      "name": "20_-_Default",
      "pbrMetallicRoughness": {
        "baseColorFactor": [
          0.235294,
          0.52549,
          0.0,
          1.0
        ],
        "metallicFactor": 0.2761051829,
        "roughnessFactor": 0.8929713596
      }
    },
    {
      "doubleSided": true,
      "name": "19_-_Default",
      "pbrMetallicRoughness": {
        "baseColorFactor": [
          0.0875646214,
          1.0,
          0.0,
          1.0
        ],
        "metallicFactor": 0.8980564024,
        "roughnessFactor": 0.8929713596
      }
    },
    {
      "doubleSided": true,
      "name": "15_-_Default",
      "pbrMetallicRoughness": {
        "baseColorTexture": {
          "index": 0
        },
        "metallicFactor": 0.0,
        "roughnessFactor": 0.8929713596
      }
    }
  ],
  "meshes": [
    {
      "name": "Base_21 - Default_0",
      "primitives": [
        {
          "attributes": {
            "NORMAL": 1,
            "POSITION": 0,
            "TEXCOORD_0": 2
          },
          "indices": 3,
          "material": 0,
          "mode": 4
        }
      ]
    },
    {
      "name": "Pole_20 - Default_0",
      "primitives": [
        {
          "attributes": {
            "NORMAL": 5,
            "POSITION": 4,
            "TEXCOORD_0": 6
          },
          "indices": 7,
          "material": 1,
          "mode": 4
        }
      ]
    },
    {
      "name": "Pole_19 - Default_0",
      "primitives": [
        {
          "attributes": {
            "NORMAL": 9,
            "POSITION": 8,
            "TEXCOORD_0": 10
          },
          "indices": 11,
          "material": 2,
          "mode": 4
        }
      ]
    },
    {
      "name": "Flag_15 - Default_0",
      "primitives": [
        {
          "attributes": {
            "NORMAL": 13,
            "POSITION": 12,
            "TEXCOORD_0": 14
          },
          "indices": 15,
          "material": 3,
          "mode": 4
        }
      ]
    },
    {
      "name": "Flag_20 - Default_0",
      "primitives": [
        {
          "attributes": {
            "NORMAL": 17,
            "POSITION": 16,
            "TEXCOORD_0": 18
          },
          "indices": 19,
          "material": 1,
          "mode": 4
        }
      ]
    }
  ],
  "nodes": [
    {
      "children": [
        1
      ],
      "matrix": [
        1.0,
        0.0,
        0.0,
        0.0,
        0.0,
        2.220446049250313e-16,
        -1.0,
        0.0,
        0.0,
        1.0,
        2.220446049250313e-16,
        0.0,
        0.0,
        0.0,
        0.0,
        1.0
      ],
      "name": "Sketchfab_model"
    },
    {
      "children": [
        2
      ],
      "matrix": [
        1.0,
        0.0,
        0.0,
        0.0,
        0.0,
        0.0,
        1.0,
        0.0,
        0.0,
        -1.0,
        0.0,
        0.0,
        0.0,
        0.0,
        0.0,
        1.0
      ],
      "name": "Flagpole.FBX"
    },
    {
      "children": [
        3
      ],
      "name": "Object_2"
    },
    {
      "children": [
        4
      ],
      "name": "RootNode"
    },
    {
      "children": [
        5,
        8,
        11
      ],
      "name": "Flag Pole",
      "rotation": [
        -0.7071068286895752,
        -0.0,
        0.0,
        0.7071068286895752
      ],
      "translation": [
        146442.9375,
        5193.6123046875,
        -15.722747802734375
      ]
    },
    {
      "children": [
        6
      ],
      "name": "Base",
      "rotation": [
        0.7071068286895752,
        0.0,
        0.0,
        0.7071067094802856
      ],
      "translation": [
        -12233.25,
        -790.7952880859375,
        -3079.844970703125
      ]
    },
    {
      "children": [
        7
      ],
      "matrix": [
        1.0,
        0.0,
        -0.0,
        0.0,
        0.0,
        1.0,
        0.0,
        0.0,
        0.0,
        0.0,
        1.0,
        0.0,
        0.0,
        -9.89464606391266e-05,
        -607.3290405273438,
        1.0
      ],
      "name": "Object_6"
    },
    {
      "mesh": 0,
      "name": "Base_21 - Default_0"
    },
    {
      "children": [
        9,
        10
      ],
      "name": "Pole",
      "translation": [
        306.78125,
        0.0003452301025390625,
        -3802.24609375
      ]
    },
    {
      "mesh": 1,
      "name": "Pole_20 - Default_0"
    },
    {
      "mesh": 2,
      "name": "Pole_19 - Default_0"
    },
    {
      "children": [
        12,
        13
      ],
      "name": "Flag",
      "translation": [
        306.78125,
        -6.053213119506836,
        -3802.24609375
      ]
    },
    {
      "mesh": 3,
      "name": "Flag_15 - Default_0"
    },
    {
      "mesh": 4,
      "name": "Flag_20 - Default_0"
    }
  ],
  "samplers": [
    {
      "magFilter": 9729,
      "minFilter": 9987,
      "wrapS": 10497,
      "wrapT": 10497
    }
  ],
  "scene": 0,
  "scenes": [
    {
      "name": "Sketchfab_Scene",
      "nodes": [
        0
      ]
    }
  ],
  "textures": [
    {
      "sampler": 0,
      "source": 0
    }
  ]
}
